<?xml version="1.0" standalone="no"?>
<!DOCTYPE svg PUBLIC "-//W3C//DTD SVG 20010904//EN"
 "http://www.w3.org/TR/2001/REC-SVG-20010904/DTD/svg10.dtd">
<svg version="1.0" xmlns="http://www.w3.org/2000/svg"
 width="414.000000pt" height="138.000000pt" viewBox="0 0 414.000000 138.000000"
 preserveAspectRatio="xMidYMid meet">

<g transform="translate(0.000000,138.000000) scale(0.100000,-0.100000)"
fill="#333333" stroke="none">
<path d="M405 1292 c-157 -54 -256 -171 -302 -358 -24 -98 -24 -318 1 -399 27
-88 62 -152 117 -211 143 -151 381 -134 555 40 107 107 160 239 171 426 15
271 -77 439 -275 500 -81 25 -198 26 -267 2z m233 -250 c54 -39 67 -82 67
-217 -1 -101 -5 -129 -24 -178 -46 -116 -127 -187 -214 -187 -32 0 -46 7 -77
38 -21 21 -43 55 -49 77 -46 163 -5 393 81 458 63 48 155 52 216 9z"/>
<path d="M2408 1276 c-127 -45 -245 -198 -256 -331 -9 -124 53 -223 185 -293
137 -72 180 -142 137 -223 -19 -38 -68 -59 -137 -59 -45 0 -61 5 -91 29 -67
54 -140 49 -192 -12 -46 -55 -17 -126 80 -192 180 -121 449 -61 549 123 100
184 16 412 -190 516 -68 33 -113 74 -113 101 0 27 49 82 100 112 86 49 103 70
97 121 -5 49 -35 87 -84 108 -39 17 -38 17 -85 0z"/>
<path d="M3740 1277 c-86 -32 -179 -118 -228 -212 -18 -37 -27 -70 -30 -126
-8 -131 40 -204 193 -294 130 -76 166 -133 130 -208 -21 -45 -67 -67 -138 -67
-45 0 -61 5 -91 29 -46 37 -86 46 -131 31 -42 -14 -85 -63 -85 -96 0 -59 69
-132 165 -175 71 -32 216 -32 297 -1 75 30 138 80 175 139 45 71 56 115 51
207 -4 65 -11 93 -35 141 -39 76 -120 153 -204 194 -71 35 -99 62 -99 96 0 33
44 82 107 117 71 40 96 73 89 117 -14 86 -90 135 -166 108z"/>
<path d="M1605 1211 c-137 -62 -299 -298 -384 -561 -62 -192 -114 -454 -100
-505 18 -64 102 -109 161 -86 42 16 56 48 83 186 13 70 26 129 28 131 2 2 55
1 119 -3 l115 -6 6 -108 c7 -145 18 -164 109 -192 28 -10 86 12 109 41 21 27
21 28 15 377 -11 526 -25 632 -96 706 -32 34 -43 39 -81 39 -24 0 -62 -9 -84
-19z m15 -456 l0 -145 -81 0 c-92 0 -89 -6 -43 97 23 53 109 193 119 193 3 0
5 -65 5 -145z"/>
<path d="M3023 1190 c-18 -10 -38 -32 -46 -47 -18 -35 -63 -487 -83 -834 l-7
-116 29 -32 c52 -58 148 -50 191 15 13 21 21 79 34 268 10 132 28 343 40 468
21 215 21 228 5 253 -31 48 -107 59 -163 25z"/>
</g>
</svg>